<svg xmlns="http://www.w3.org/2000/svg" width="1600" height="900" fill="none" viewBox="0 0 1600 900"><g clip-path="url(#clip0)"><path stroke="#F9D56E" stroke-width="22" d="M713.881 919L750.633 919C759.128 919 766 912.111 766 903.63L766 786.37C766 777.889 759.128 771 750.633 771L624.367 771C615.872 771 609 777.889 609 786.37L609 816.595C609 825.076 615.872 831.965 624.367 831.965L654.121 831.965L654.121 861.023C654.121 869.504 660.993 876.393 669.488 876.393L698.515 876.393L698.515 903.63C698.515 912.111 705.387 919 713.881 919Z"/><path stroke="#72A6E2" stroke-width="22" d="M1416.5 122C1464.82 122 1504 82.8249 1504 34.5C1504 -13.8249 1464.82 -53 1416.5 -53C1368.18 -53 1329 -13.8249 1329 34.5C1329 82.8249 1368.18 122 1416.5 122Z"/><path fill="#E29B94" d="M205.772 289C153.45 289 110.608 329.59 107.016 380.999C106.747 384.856 109.906 388 113.772 388H297.772C301.638 388 304.798 384.856 304.529 380.999C300.937 329.59 258.095 289 205.772 289Z"/></g><defs><clipPath id="clip0"><rect width="1600" height="900" fill="#fff"/></clipPath></defs></svg>